<svg width="375" height="19" viewBox="0 0 375 19" fill="none" xmlns="http://www.w3.org/2000/svg">
<path d="M353.075 16.6725C352.854 16.6725 352.642 16.5891 352.486 16.4406C352.329 16.2922 352.242 16.0908 352.242 15.8808L352.117 4.275C352.107 4.03936 352.146 3.80415 352.232 3.58292C352.318 3.36168 352.449 3.15878 352.618 2.98588C352.787 2.81298 352.99 2.6735 353.215 2.57546C353.441 2.47741 353.685 2.42274 353.933 2.41458L361.925 2.375C362.173 2.37912 362.419 2.4297 362.646 2.52384C362.874 2.61798 363.08 2.75384 363.253 2.92366C363.425 3.09349 363.561 3.29394 363.652 3.51358C363.743 3.73322 363.788 3.96774 363.783 4.20375L363.9 15.8096C363.901 15.9483 363.864 16.085 363.793 16.2058C363.721 16.3267 363.617 16.4276 363.492 16.4983C363.365 16.5678 363.221 16.6044 363.075 16.6044C362.929 16.6044 362.785 16.5678 362.658 16.4983L357.908 13.9967L353.5 16.5538C353.369 16.623 353.224 16.6636 353.075 16.6725Z" fill="#8CCC00"/>
<path d="M9.07498 16.6725C8.85397 16.6725 8.64201 16.5891 8.48573 16.4406C8.32945 16.2922 8.24165 16.0908 8.24165 15.8808L8.11665 4.275C8.10662 4.03936 8.14572 3.80415 8.23171 3.58292C8.31771 3.36168 8.44889 3.15878 8.61772 2.98588C8.78656 2.81298 8.9897 2.6735 9.21548 2.57546C9.44126 2.47741 9.68522 2.42274 9.93332 2.41458L17.925 2.375C18.1734 2.37912 18.4186 2.4297 18.6464 2.52384C18.8743 2.61798 19.0803 2.75384 19.2529 2.92366C19.4255 3.09349 19.5612 3.29394 19.6522 3.51358C19.7432 3.73322 19.7877 3.96774 19.7833 4.20375L19.9 15.8096C19.9014 15.9483 19.8644 16.085 19.7928 16.2058C19.7211 16.3267 19.6173 16.4276 19.4917 16.4983C19.365 16.5678 19.2213 16.6044 19.075 16.6044C18.9287 16.6044 18.785 16.5678 18.6583 16.4983L13.9083 13.9967L9.49998 16.5538C9.36944 16.623 9.22422 16.6636 9.07498 16.6725Z" fill="#8CCC00"/>
<line y1="3" x2="375" y2="3" stroke="#8CCC00" stroke-width="2"/>
</svg>
