<svg width="52" height="54" viewBox="0 0 52 54" fill="none" xmlns="http://www.w3.org/2000/svg">
<path d="M38.741 14.333C39.924 12.554 41.04 9.616 38.286 6.842C35.518 4.057 37.358 0 37.358 0C37.358 0 31.544 5.363 35.216 9.061C37.349 11.208 37.879 12.947 37.879 14.147C34.988 13.548 31.773 13.165 28.347 13.043C29.741 10.569 30.697 6.895 27.338 3.409C23.648 -0.42 26.104 -6 26.104 -6C26.104 -6 18.351 1.374 23.248 6.458C25.851 9.16 26.659 11.385 26.777 13.008C26.518 13.005 26.261 13 26 13C22.887 13 19.918 13.216 17.173 13.612C18.14 11.82 18.693 9.268 16.284 6.842C13.516 4.058 15.357 0 15.357 0C15.357 0 9.543 5.363 13.214 9.061C15.161 11.021 15.768 12.637 15.86 13.818C6.457 15.417 -0.00199954 19.204 4.64337e-07 23.752C0.00300046 23.99 0.0250003 24.227 0.0550003 24.404C0.322 27.08 1.641 36.37 7.403 44.251L6.383 47.051L13.427 49.614C13.468 49.638 13.513 49.66 13.554 49.683C14.148 50.447 15.038 51.298 16.378 52.083C17.722 52.869 20.92 54 25.998 54C31.078 54 34.278 52.869 35.62 52.084C36.958 51.3 37.847 50.449 38.44 49.688C41.076 48.153 43.117 46.262 44.476 44.425C50.338 36.512 51.674 27.1 51.937 24.455C51.973 24.223 51.995 23.988 52 23.707C52 19.623 46.712 16.143 38.741 14.333ZM14.858 40.189V39.65C15.1326 39.7739 15.3505 39.9965 15.4685 40.2737C15.5865 40.5508 15.596 40.8622 15.495 41.146C15.3766 41.4355 15.1506 41.6679 14.8646 41.7944C14.5786 41.9209 14.2546 41.9318 13.9608 41.8247C13.6669 41.7176 13.4259 41.5009 13.2884 41.22C13.1508 40.9391 13.1274 40.6158 13.223 40.318C13.2778 40.1674 13.3622 40.0292 13.4713 39.9117C13.5803 39.7943 13.7118 39.6998 13.858 39.634V40.189H14.858ZM49.998 23.731C49.994 23.8898 49.9793 24.0482 49.954 24.205C49.697 26.771 48.428 35.732 42.869 43.234C40.11 46.963 34.23 50.947 26 50.947C22.557 50.947 19.531 50.244 16.967 49.16L18.655 44.519L15.235 38.324L14.858 38.469V30.578C18.126 31.277 21.93 31.682 25.998 31.682C36.608 31.682 45.463 28.952 47.537 25.317C45.463 21.684 36.608 18.952 25.998 18.952C15.388 18.952 6.535 21.684 4.456 25.317C5.655 27.413 9.116 29.205 13.858 30.349V38.856L8.631 40.872L8.236 41.956C3.432 34.74 2.286 26.625 2.038 24.15C2.01412 24.0035 2.00076 23.8554 1.998 23.707C1.998 20.65 7.113 17.444 15.414 15.917C15.382 15.968 15.357 16 15.357 16L15.45 15.91C18.558 15.342 22.098 15 26 15C40.356 15 50 19.501 50.003 23.628L49.998 23.731Z" fill="#BCBCCC"/>
</svg>
