<svg width="302" height="33" viewBox="0 0 302 33" fill="none" xmlns="http://www.w3.org/2000/svg">
<path d="M6.846 20.83H2.59L1.806 23H0.462L3.99 13.298H5.46L8.974 23H7.63L6.846 20.83ZM6.482 19.794L4.718 14.866L2.954 19.794H6.482Z" fill="#201D5B"/>
<path d="M297.758 20.59H291.07L289.838 24H287.726L293.27 8.754H295.58L301.102 24H298.99L297.758 20.59ZM297.186 18.962L294.414 11.218L291.642 18.962H297.186Z" fill="#201D5B"/>
<rect width="260" height="5" rx="2.5" transform="matrix(1 0 0 -1 21 20)" fill="#F9D0BD"/>
<g filter="url(#filter0_d)">
<circle cx="33.5" cy="16.5" r="12.5" fill="white"/>
</g>
<defs>
<filter id="filter0_d" x="19" y="2" width="29" height="29" filterUnits="userSpaceOnUse" color-interpolation-filters="sRGB">
<feFlood flood-opacity="0" result="BackgroundImageFix"/>
<feColorMatrix in="SourceAlpha" type="matrix" values="0 0 0 0 0 0 0 0 0 0 0 0 0 0 0 0 0 0 127 0" result="hardAlpha"/>
<feOffset/>
<feGaussianBlur stdDeviation="1"/>
<feColorMatrix type="matrix" values="0 0 0 0 0 0 0 0 0 0 0 0 0 0 0 0 0 0 0.25 0"/>
<feBlend mode="normal" in2="BackgroundImageFix" result="effect1_dropShadow"/>
<feBlend mode="normal" in="SourceGraphic" in2="effect1_dropShadow" result="shape"/>
</filter>
</defs>
</svg>
