<svg width="28" height="24" viewBox="0 0 28 24" fill="none" xmlns="http://www.w3.org/2000/svg">
<path d="M26.0937 8.29688C25.4349 6.73743 24.4798 5.32062 23.2812 4.125C22.0856 2.92649 20.6688 1.97134 19.1094 1.3125C17.4893 0.626953 15.7725 0.28125 14 0.28125C12.2275 0.28125 10.5107 0.626953 8.89063 1.3125C7.33118 1.97134 5.91437 2.92649 4.71875 4.125C3.52024 5.32062 2.56509 6.73743 1.90625 8.29688C1.2207 9.91699 0.875 11.6338 0.875 13.4062C0.875 17.2939 2.58301 20.9561 5.55957 23.458L5.60938 23.499C5.7793 23.6396 5.99316 23.7188 6.21289 23.7188H21.79C22.0098 23.7188 22.2236 23.6396 22.3936 23.499L22.4434 23.458C25.417 20.9561 27.125 17.2939 27.125 13.4062C27.125 11.6338 26.7764 9.91699 26.0937 8.29688ZM21.3066 21.4922H6.69336C5.56132 20.4715 4.65655 19.2241 4.03776 17.8311C3.41898 16.4381 3.10001 14.9305 3.10156 13.4062C3.10156 10.4941 4.23535 7.75781 6.29492 5.70117C8.35449 3.6416 11.0908 2.50781 14 2.50781C16.9121 2.50781 19.6484 3.6416 21.7051 5.70117C23.7646 7.76074 24.8984 10.4971 24.8984 13.4062C24.8984 16.5 23.5947 19.4268 21.3066 21.4922ZM17.2666 9.34863C17.2226 9.30501 17.1631 9.28055 17.1011 9.28055C17.0391 9.28055 16.9796 9.30501 16.9355 9.34863L14.46 11.8242C13.9121 11.6777 13.3057 11.8184 12.875 12.249C12.7225 12.4013 12.6014 12.5821 12.5189 12.7812C12.4363 12.9803 12.3938 13.1937 12.3938 13.4092C12.3938 13.6247 12.4363 13.8381 12.5189 14.0372C12.6014 14.2362 12.7225 14.4171 12.875 14.5693C13.0273 14.7219 13.2081 14.8429 13.4072 14.9255C13.6062 15.008 13.8196 15.0505 14.0352 15.0505C14.2507 15.0505 14.4641 15.008 14.6632 14.9255C14.8622 14.8429 15.0431 14.7219 15.1953 14.5693C15.3994 14.3659 15.5461 14.1122 15.6207 13.8339C15.6953 13.5556 15.6951 13.2626 15.6201 12.9844L18.0957 10.5088C18.1865 10.418 18.1865 10.2686 18.0957 10.1777L17.2666 9.34863V9.34863ZM13.3555 6.375H14.6445C14.7734 6.375 14.8789 6.26953 14.8789 6.14062V3.79688C14.8789 3.66797 14.7734 3.5625 14.6445 3.5625H13.3555C13.2266 3.5625 13.1211 3.66797 13.1211 3.79688V6.14062C13.1211 6.26953 13.2266 6.375 13.3555 6.375ZM20.9727 12.7617V14.0508C20.9727 14.1797 21.0781 14.2852 21.207 14.2852H23.5508C23.6797 14.2852 23.7852 14.1797 23.7852 14.0508V12.7617C23.7852 12.6328 23.6797 12.5273 23.5508 12.5273H21.207C21.0781 12.5273 20.9727 12.6328 20.9727 12.7617ZM21.3447 6.98437L20.4336 6.07324C20.3895 6.02962 20.3301 6.00516 20.2681 6.00516C20.2061 6.00516 20.1466 6.02962 20.1025 6.07324L18.4443 7.73144C18.4007 7.7755 18.3762 7.83498 18.3762 7.89697C18.3762 7.95896 18.4007 8.01845 18.4443 8.0625L19.3555 8.97363C19.4463 9.06445 19.5957 9.06445 19.6865 8.97363L21.3447 7.31543C21.4355 7.22461 21.4355 7.07519 21.3447 6.98437ZM7.90918 6.07324C7.86513 6.02962 7.80564 6.00516 7.74365 6.00516C7.68166 6.00516 7.62217 6.02962 7.57812 6.07324L6.66699 6.98437C6.62337 7.02842 6.59891 7.08791 6.59891 7.1499C6.59891 7.21189 6.62337 7.27138 6.66699 7.31543L8.32519 8.97363C8.41602 9.06445 8.56543 9.06445 8.65625 8.97363L9.56738 8.0625C9.6582 7.97168 9.6582 7.82227 9.56738 7.73144L7.90918 6.07324ZM6.67578 12.5273H4.33203C4.20312 12.5273 4.09766 12.6328 4.09766 12.7617V14.0508C4.09766 14.1797 4.20312 14.2852 4.33203 14.2852H6.67578C6.80469 14.2852 6.91016 14.1797 6.91016 14.0508V12.7617C6.91016 12.6328 6.80469 12.5273 6.67578 12.5273Z" fill="#EB6223"/>
</svg>
