<svg width="43" height="20" viewBox="0 0 43 20" fill="none" xmlns="http://www.w3.org/2000/svg">
<path d="M0 13.896C0.347503 13.206 0.964159 13.0098 1.66746 12.968C2.28135 12.9308 2.89985 12.9196 3.50913 12.8424C5.52225 12.5848 6.95466 11.4345 7.97781 9.73925C8.51428 8.84931 8.92077 7.88125 9.4388 6.97922C10.5357 5.06728 12.0971 3.61752 13.948 2.45976C15.15 1.70745 16.3916 1.10206 17.8277 0.969082C19.0546 0.85563 20.2667 0.961642 21.4558 1.23225C23.4044 1.67583 25.3364 2.19659 27.2813 2.65969C29.853 3.27159 32.4127 3.29019 34.9263 2.37142C35.4333 2.18636 35.9006 1.88692 36.3827 1.63305C36.8159 1.40522 37.2372 1.15228 37.6768 0.939324C37.9442 0.810064 38.1543 0.719861 38.3138 0.388806C38.4308 0.146094 38.9452 0.00381481 39.2844 0.00195495C39.4872 0.00102502 39.6918 0.355328 39.8964 0.550614C39.8716 0.576652 39.8457 0.603619 39.8209 0.629658C40.1923 0.675224 40.5647 0.707772 40.9334 0.769147C41.5049 0.864 41.8699 1.18948 42.0893 1.74743C42.2451 2.14172 42.4884 2.5137 42.7484 2.85126C43.0664 3.26415 43.0968 3.40271 42.7594 3.79328C42.5806 3.99972 42.3898 4.19594 42.2082 4.39959C42.1796 4.43214 42.1547 4.48143 42.1538 4.52327C42.1446 5.01614 41.8137 5.27559 41.3399 5.0989C41.0164 4.97801 40.7546 4.97615 40.4458 5.14168C40.1785 5.28489 39.8706 5.36486 39.572 5.43367C38.0354 5.78798 37.0878 6.89738 36.2315 8.1035C35.802 8.70889 35.437 9.36356 35.071 10.0117C34.7687 10.5483 34.2885 10.8552 33.764 11.0914C33.1805 11.3545 32.5722 11.5601 31.9518 11.8C32.0974 12.9261 32.2081 14.0644 32.7639 15.0929C33.1501 15.8089 33.1012 16.4078 32.5758 17.1052C31.785 18.1542 30.6355 18.7047 29.6705 19.5044C29.5525 19.6021 29.2068 19.5853 29.0879 19.4812C28.8925 19.3101 28.7164 19.0404 28.9072 18.7317C28.9589 18.648 29.0123 18.5634 29.0768 18.4908C29.7276 17.7599 30.3701 17.0215 31.0383 16.3083C31.2614 16.0702 31.3315 15.8703 31.1831 15.5643C30.6825 14.5275 30.2023 13.4813 29.6612 12.3254C29.0898 12.9066 28.545 13.3883 28.0896 13.9444C27.6739 14.4512 27.2932 15.0082 27.0057 15.5969C26.4342 16.7639 25.5576 17.5758 24.3713 18.011C23.5057 18.3281 22.9241 18.8767 22.5499 19.7034C22.4881 19.8392 22.2549 20.0299 22.1812 19.9992C22.0116 19.9294 21.7738 19.7406 21.7701 19.5946C21.7572 19.0107 21.7673 18.4136 21.8752 17.8417C21.9673 17.3526 22.3425 17.0513 22.855 16.9806C24.3667 16.7732 25.1207 15.8024 25.5871 14.4131C25.9207 13.4199 26.4544 12.4965 26.9033 11.5433C26.9798 11.3806 27.0766 11.2281 27.1919 11.0198C25.694 11.3601 24.7418 10.4413 23.7482 9.66207C23.1877 9.22221 22.6798 8.71447 22.1185 8.21044C22.03 8.94416 21.5387 9.37379 21.0557 9.78203C20.3607 10.3697 19.6251 10.91 18.896 11.4791C19.1938 11.8558 19.5182 12.2222 19.7929 12.623C20.1883 13.2004 20.5036 13.8086 20.2704 14.5581C20.2446 14.6409 20.346 14.7813 20.416 14.8734C20.7395 15.2984 21.088 15.7057 21.3986 16.14C21.5811 16.3948 21.7387 16.7137 21.4281 16.9741C21.1488 17.2084 20.8234 17.3014 20.4658 17.0634C20.2335 16.9081 19.9468 16.8328 19.7192 16.6728C19.4832 16.5073 19.2186 16.3204 19.085 16.0758C18.3107 14.6549 17.1465 13.5641 16.0893 12.3821C15.5178 11.7442 15.5215 11.7005 16.1096 11.0486C15.7971 10.5725 15.492 10.0852 15.162 9.61557C14.9564 9.32264 14.9693 9.05854 15.2108 8.81955C15.4975 8.53592 15.8072 8.27554 16.1197 7.99377C14.8762 7.22286 13.6927 6.39801 13.1332 4.92779C12.4926 5.2356 12.0842 5.76008 11.7543 6.35803C10.9311 7.8487 10.1375 9.35705 9.28302 10.8291C8.59447 12.0148 7.72064 13.0647 6.42281 13.5957C5.69278 13.8951 4.90099 14.0597 4.12302 14.2159C3.31003 14.3787 2.51548 14.5554 1.76609 14.9338C0.985359 15.3281 0.441522 15.144 0.00184352 14.4056C0 14.2355 0 14.0653 0 13.896Z" fill="#EB6223"/>
</svg>
