<svg width="79" height="60" viewBox="0 0 79 60" fill="none" xmlns="http://www.w3.org/2000/svg">
<rect opacity="0.2" width="79" height="60" rx="14" fill="#C9C9CF"/>
<path d="M34.0312 19.6562C34.9015 19.6562 35.7361 20.002 36.3514 20.6173C36.9668 21.2327 37.3125 22.0673 37.3125 22.9375V36.0625C37.3125 36.9327 36.9668 37.7673 36.3514 38.3827C35.7361 38.998 34.9015 39.3438 34.0312 39.3438C33.161 39.3438 32.3264 38.998 31.7111 38.3827C31.0957 37.7673 30.75 36.9327 30.75 36.0625V22.9375C30.75 22.0673 31.0957 21.2327 31.7111 20.6173C32.3264 20.002 33.161 19.6562 34.0312 19.6562ZM44.9688 19.6562C45.839 19.6562 46.6736 20.002 47.2889 20.6173C47.9043 21.2327 48.25 22.0673 48.25 22.9375V36.0625C48.25 36.9327 47.9043 37.7673 47.2889 38.3827C46.6736 38.998 45.839 39.3438 44.9688 39.3438C44.0985 39.3438 43.2639 38.998 42.6486 38.3827C42.0332 37.7673 41.6875 36.9327 41.6875 36.0625V22.9375C41.6875 22.0673 42.0332 21.2327 42.6486 20.6173C43.2639 20.002 44.0985 19.6562 44.9688 19.6562Z" fill="#EB6223"/>
</svg>
