<svg width="26" height="24" viewBox="0 0 26 24" fill="none" xmlns="http://www.w3.org/2000/svg">
<path d="M23.3874 7.0375L24.5499 3.1875C25.0874 3.0625 25.4999 2.5875 25.4999 2C25.4999 1.3125 24.9374 0.75 24.2499 0.75C23.5624 0.75 22.9999 1.3125 22.9999 2C22.9999 2.325 23.1374 2.625 23.3374 2.85L22.3749 6.075L21.4124 2.85C21.6124 2.625 21.7499 2.325 21.7499 2C21.7499 1.3125 21.1874 0.75 20.4999 0.75C19.8124 0.75 19.2499 1.3125 19.2499 2C19.2499 2.5875 19.6624 3.0625 20.1999 3.1875L21.3624 7.0375C20.1624 7.225 19.2499 8.25 19.2499 9.5V12.3125C17.5624 8.45 13.7874 5.75 9.38743 5.75C4.48743 5.75 0.499932 9.825 0.499932 14.825C0.499932 17.125 1.52493 19.1875 3.12493 20.5625L1.59993 20.75C1.27994 20.785 0.985669 20.9417 0.778055 21.1877C0.570441 21.4337 0.465395 21.7501 0.484674 22.0714C0.503953 22.3927 0.64608 22.6943 0.881618 22.9137C1.11716 23.1331 1.42806 23.2535 1.74993 23.25H21.8999C23.1999 23.25 24.2499 22.2 24.2499 20.9V11.65C24.9999 11.225 25.4999 10.425 25.4999 9.5C25.4999 8.25 24.5874 7.225 23.3874 7.0375ZM17.4999 18.7625L13.0874 19.325C13.6249 18.375 13.9999 17.2625 13.9999 16.075C13.9999 13.175 11.6874 10.825 8.83743 10.825C8.17493 10.825 7.52493 10.975 6.92493 11.2625C6.31243 11.575 6.04993 12.325 6.36243 12.9375C6.43443 13.0854 6.53492 13.2177 6.65816 13.3267C6.78139 13.4358 6.92493 13.5194 7.08054 13.5728C7.23616 13.6262 7.40079 13.6484 7.565 13.638C7.7292 13.6277 7.88975 13.585 8.03743 13.5125C8.28743 13.3875 8.56243 13.325 8.83743 13.325C10.3124 13.325 11.4999 14.55 11.4999 16.075C11.4999 18.15 9.87493 19.8375 7.86243 19.8375C5.18743 19.8375 2.99993 17.5875 2.99993 14.825C2.99993 11.2 5.86243 8.25 9.38743 8.25C13.9624 8.25 17.6874 12.075 17.6874 16.775C17.6874 17.45 17.6124 18.1125 17.4999 18.7625V18.7625Z" fill="#EB6223"/>
</svg>
