<svg width="67" height="61" viewBox="0 0 67 61" fill="none" xmlns="http://www.w3.org/2000/svg">
<rect width="67" height="53" rx="14" fill="#EB6223"/>
<rect opacity="0.2" x="17" y="56" width="9" height="5" rx="2" fill="#EB6223"/>
<rect opacity="0.2" x="29" y="56" width="10" height="5" rx="2" fill="#EB6223"/>
<rect x="42" y="56" width="9" height="5" rx="2" fill="#EB6223"/>
<path d="M24.88 28.06L22.923 22.265C22.771 22.759 22.6 23.234 22.448 23.709C22.296 24.184 22.144 24.659 21.992 25.115C21.821 25.59 21.669 26.065 21.498 26.559C21.346 27.053 21.175 27.547 21.004 28.06H24.88ZM16.387 33L21.859 19.149H24.006L29.478 33H26.115L25.621 30.853H20.225L19.56 33H16.387ZM39.1863 29.2C39.5283 28.915 39.7753 28.307 39.9273 27.433C39.8893 26.369 39.6613 25.571 39.2813 25.02C38.9393 24.469 38.3883 24.203 37.6853 24.203C36.9633 24.203 36.3933 24.507 35.9753 25.02C35.5573 25.59 35.3293 26.426 35.3103 27.471C35.5383 28.972 36.2413 29.713 37.6473 29.713C38.2933 29.675 38.7873 29.485 39.1863 29.2ZM32.6503 31.043L32.4413 18.826H34.7403L34.5883 23.367C35.2913 22.664 36.1463 22.379 37.3053 22.379C39.8893 22.379 41.6183 24.602 41.6183 27.813C41.6183 31.024 39.8893 33.247 37.3053 33.247C36.1463 33.247 35.2533 32.943 34.5503 32.221L32.6503 31.043ZM52.7836 25.305C51.6056 24.659 50.5606 24.336 49.7056 24.336C47.8436 24.336 46.8936 25.628 46.8746 27.775C46.9506 28.478 47.1976 29.029 47.5586 29.295C47.9766 29.561 48.7936 29.751 49.6486 29.827H51.0166C51.4156 29.808 51.9856 29.618 52.7266 29.181L52.7836 32.506C51.7006 33 50.6556 33.247 49.5346 33.247C46.4186 33.247 44.4046 31.081 44.4046 27.813C44.4046 24.469 46.3996 22.379 49.6296 22.379C50.6556 22.379 51.7006 22.626 52.7836 23.101V25.305Z" fill="white"/>
</svg>
