<svg width="67" height="61" viewBox="0 0 67 61" fill="none" xmlns="http://www.w3.org/2000/svg">
<rect width="67" height="53" rx="14" fill="#EB6223"/>
<rect opacity="0.2" x="17" y="56" width="9" height="5" rx="2" fill="#EB6223"/>
<rect x="29" y="56" width="10" height="5" rx="2" fill="#EB6223"/>
<rect opacity="0.2" x="42" y="56" width="9" height="5" rx="2" fill="#EB6223"/>
<path d="M24.9043 29.4189H20.4604L19.9316 30.6436C19.7585 31.0518 19.6719 31.3888 19.6719 31.6548C19.6719 32.0073 19.8141 32.2671 20.0986 32.4341C20.2656 32.533 20.6769 32.6073 21.3325 32.6567V33H17.1484V32.6567C17.5999 32.5887 17.971 32.4032 18.2617 32.1001C18.5524 31.7909 18.9111 31.1569 19.3379 30.1982L23.8374 20.1602H24.0137L28.5503 30.4766C28.9832 31.4538 29.3389 32.0692 29.6172 32.3228C29.8275 32.5145 30.1243 32.6258 30.5078 32.6567V33H24.4219V32.6567H24.6724C25.161 32.6567 25.5042 32.5887 25.7021 32.4526C25.8382 32.3537 25.9062 32.2114 25.9062 32.0259C25.9062 31.9146 25.8877 31.8001 25.8506 31.6826C25.8382 31.627 25.7454 31.395 25.5723 30.9868L24.9043 29.4189ZM24.5889 28.7324L22.7148 24.3999L20.7852 28.7324H24.5889ZM34.729 20.4199V25.1978C35.4588 24.4432 36.2567 24.0659 37.1226 24.0659C37.7163 24.0659 38.276 24.2422 38.8018 24.5947C39.3275 24.9411 39.7388 25.4359 40.0356 26.0791C40.3325 26.7223 40.481 27.4645 40.481 28.3057C40.481 29.252 40.2923 30.1117 39.915 30.8848C39.5378 31.6579 39.0337 32.2485 38.4028 32.6567C37.772 33.0588 37.0514 33.2598 36.2412 33.2598C35.7712 33.2598 35.3537 33.1855 34.9888 33.0371C34.6239 32.8887 34.2651 32.6475 33.9126 32.3135L32.4746 33.2505H32.1592V22.2197C32.1592 21.7188 32.1375 21.4095 32.0942 21.292C32.0324 21.1188 31.9334 20.992 31.7974 20.9116C31.6675 20.825 31.4448 20.7756 31.1294 20.7632V20.4199H34.729ZM34.729 26.0234V29.8828C34.729 30.6683 34.7476 31.1693 34.7847 31.3857C34.8465 31.7507 34.995 32.0475 35.23 32.2764C35.465 32.499 35.765 32.6104 36.1299 32.6104C36.4453 32.6104 36.7144 32.5207 36.937 32.3413C37.1659 32.1619 37.3545 31.8063 37.5029 31.2744C37.6576 30.7425 37.7349 29.7839 37.7349 28.3984C37.7349 27.0687 37.5679 26.1564 37.2339 25.6616C36.9927 25.3029 36.668 25.1235 36.2598 25.1235C35.7279 25.1235 35.2176 25.4235 34.729 26.0234ZM49.0254 30.7642L49.313 30.9868C48.9048 31.7537 48.3945 32.3258 47.7822 32.7031C47.1761 33.0742 46.5298 33.2598 45.8433 33.2598C44.6867 33.2598 43.762 32.8237 43.0693 31.9517C42.3766 31.0796 42.0303 30.0312 42.0303 28.8066C42.0303 27.6253 42.3457 26.5863 42.9766 25.6895C43.7373 24.6071 44.7856 24.0659 46.1216 24.0659C47.0184 24.0659 47.7297 24.2917 48.2554 24.7432C48.7873 25.1947 49.0532 25.6987 49.0532 26.2554C49.0532 26.6079 48.945 26.8893 48.7285 27.0996C48.5182 27.3099 48.2399 27.415 47.8936 27.415C47.5286 27.415 47.2256 27.2944 46.9844 27.0532C46.7493 26.812 46.604 26.3822 46.5483 25.7637C46.5112 25.374 46.4215 25.1019 46.2793 24.9473C46.137 24.7926 45.9701 24.7153 45.7783 24.7153C45.4814 24.7153 45.2279 24.873 45.0176 25.1885C44.696 25.6647 44.5352 26.3945 44.5352 27.3779C44.5352 28.1943 44.665 28.9767 44.9248 29.7251C45.1846 30.4673 45.5402 31.0208 45.9917 31.3857C46.3319 31.6517 46.7339 31.7847 47.1978 31.7847C47.5008 31.7847 47.7884 31.7135 48.0605 31.5713C48.3327 31.429 48.6543 31.16 49.0254 30.7642Z" fill="white"/>
</svg>
