<svg width="19" height="22" viewBox="0 0 19 22" fill="none" xmlns="http://www.w3.org/2000/svg">
<path d="M4.29165 19.8335C4.59373 19.8335 4.87498 19.771 5.08332 19.6772C5.8229 19.3127 6.34373 18.7606 6.86457 17.1981C7.41665 15.5731 8.39582 14.8127 9.35415 14.0731C10.1771 13.4377 11.0312 12.7814 11.7708 11.4377C12.3229 10.4585 12.625 9.34391 12.625 8.37516C12.625 5.4585 10.3333 3.16683 7.41665 3.16683C4.49998 3.16683 2.20832 5.4585 2.20832 8.37516H0.124983C0.124983 4.28141 3.3229 1.0835 7.41665 1.0835C11.5104 1.0835 14.7083 4.28141 14.7083 8.37516C14.7083 9.68766 14.3125 11.1356 13.5937 12.4377C12.625 14.1564 11.5312 15.021 10.625 15.7189C9.78123 16.3647 9.17707 16.8335 8.84373 17.8543C8.21873 19.7502 7.41665 20.8127 5.99998 21.5522C5.46873 21.7918 4.8854 21.9168 4.29165 21.9168C3.18658 21.9168 2.12677 21.4778 1.34537 20.6964C0.56397 19.915 0.124983 18.8552 0.124983 17.7502H2.20832C2.20832 18.3027 2.42781 18.8326 2.81851 19.2233C3.20921 19.614 3.73912 19.8335 4.29165 19.8335V19.8335ZM14.0417 1.75016L15.5208 0.270996C16.5863 1.33418 17.4312 2.59749 18.0068 3.98829C18.5824 5.37909 18.8775 6.86995 18.875 8.37516C18.875 11.5418 17.5937 14.4064 15.5208 16.4793L14.0521 15.0106C14.9245 14.1404 15.6157 13.106 16.086 11.9671C16.5562 10.8281 16.796 9.60733 16.7917 8.37516C16.7917 5.771 15.75 3.43766 14.0417 1.75016V1.75016ZM10.0208 8.37516C10.0208 8.71715 9.95346 9.05578 9.82259 9.37173C9.69171 9.68769 9.49989 9.97477 9.25807 10.2166C8.7697 10.705 8.10732 10.9793 7.41665 10.9793C7.07467 10.9793 6.73603 10.912 6.42008 10.7811C6.10413 10.6502 5.81705 10.4584 5.57523 10.2166C5.33341 9.97477 5.14159 9.68769 5.01071 9.37173C4.87984 9.05578 4.81248 8.71715 4.81248 8.37516C4.81248 7.68449 5.08685 7.02211 5.57523 6.53374C6.0636 6.04536 6.72598 5.771 7.41665 5.771C8.10732 5.771 8.7697 6.04536 9.25807 6.53374C9.74645 7.02211 10.0208 7.68449 10.0208 8.37516V8.37516Z" fill="#EB6223"/>
</svg>
