<svg width="28" height="21" viewBox="0 0 28 21" fill="none" xmlns="http://www.w3.org/2000/svg">
<path d="M26.5192 9.06292C27.1603 9.90139 27.1603 11.0333 26.5192 11.8705C24.5001 14.5063 19.6559 19.9334 14.0002 19.9334C8.34453 19.9334 3.50029 14.5063 1.48118 11.8705C1.1693 11.469 1 10.9751 1 10.4667C1 9.9583 1.1693 9.46439 1.48118 9.06292C3.50029 6.42712 8.34453 1 14.0002 1C19.6559 1 24.5001 6.42712 26.5192 9.06292V9.06292Z" stroke="#FFFFFF" stroke-width="2" stroke-linecap="round" stroke-linejoin="round"/>
<path d="M14.0002 14.5239C16.2409 14.5239 18.0573 12.7074 18.0573 10.4667C18.0573 8.226 16.2409 6.40955 14.0002 6.40955C11.7595 6.40955 9.94302 8.226 9.94302 10.4667C9.94302 12.7074 11.7595 14.5239 14.0002 14.5239Z" stroke="#FFFFFF" stroke-width="2" stroke-linecap="round" stroke-linejoin="round"/>
</svg>
