<svg width="67" height="61" viewBox="0 0 67 61" fill="none" xmlns="http://www.w3.org/2000/svg">
<rect width="67" height="53" rx="14" fill="#EB6223"/>
<rect x="17" y="56" width="9" height="5" rx="2" fill="#EB6223"/>
<rect opacity="0.2" x="29" y="56" width="10" height="5" rx="2" fill="#EB6223"/>
<rect opacity="0.2" x="42" y="56" width="9" height="5" rx="2" fill="#EB6223"/>
<path d="M28.9287 33H26.0986L24.9736 30.0732H19.8232L18.7598 33H16L21.0186 20.1152H23.7695L28.9287 33ZM24.1387 27.9023L22.3633 23.1211L20.623 27.9023H24.1387ZM30.1943 33V20.1152H32.6641V24.7559C33.4258 23.8887 34.3281 23.4551 35.3711 23.4551C36.5078 23.4551 37.4482 23.8682 38.1924 24.6943C38.9365 25.5146 39.3086 26.6953 39.3086 28.2363C39.3086 29.8301 38.9277 31.0576 38.166 31.9189C37.4102 32.7803 36.4902 33.2109 35.4062 33.2109C34.873 33.2109 34.3457 33.0791 33.8242 32.8154C33.3086 32.5459 32.8633 32.1504 32.4883 31.6289V33H30.1943ZM32.6465 28.1309C32.6465 29.0977 32.7988 29.8125 33.1035 30.2754C33.5312 30.9316 34.0996 31.2598 34.8086 31.2598C35.3535 31.2598 35.8164 31.0283 36.1973 30.5654C36.584 30.0967 36.7773 29.3613 36.7773 28.3594C36.7773 27.293 36.584 26.5254 36.1973 26.0566C35.8105 25.582 35.3154 25.3447 34.7119 25.3447C34.1201 25.3447 33.6279 25.5762 33.2354 26.0391C32.8428 26.4961 32.6465 27.1934 32.6465 28.1309ZM49.4424 26.4258L47.0078 26.8652C46.9258 26.3789 46.7383 26.0127 46.4453 25.7666C46.1582 25.5205 45.7832 25.3975 45.3203 25.3975C44.7051 25.3975 44.2129 25.6113 43.8438 26.0391C43.4805 26.4609 43.2988 27.1699 43.2988 28.166C43.2988 29.2734 43.4834 30.0557 43.8525 30.5127C44.2275 30.9697 44.7285 31.1982 45.3555 31.1982C45.8242 31.1982 46.208 31.0664 46.5068 30.8027C46.8057 30.5332 47.0166 30.0732 47.1396 29.4229L49.5654 29.8359C49.3135 30.9492 48.8301 31.79 48.1152 32.3584C47.4004 32.9268 46.4424 33.2109 45.2412 33.2109C43.876 33.2109 42.7861 32.7803 41.9717 31.9189C41.1631 31.0576 40.7588 29.8652 40.7588 28.3418C40.7588 26.8008 41.166 25.6025 41.9805 24.7471C42.7949 23.8857 43.8965 23.4551 45.2852 23.4551C46.4219 23.4551 47.3242 23.7012 47.9922 24.1934C48.666 24.6797 49.1494 25.4238 49.4424 26.4258Z" fill="white"/>
</svg>
