<svg width="26" height="26" viewBox="0 0 26 26" fill="none" xmlns="http://www.w3.org/2000/svg">
<path d="M16.25 11.9165H9.75" stroke="#8CCC00" stroke-width="2" stroke-linecap="round"/>
<path d="M15.167 20.5833C19.2522 20.5833 21.2954 20.5833 22.564 19.3137C23.8337 18.0451 23.8337 16.0019 23.8337 11.9167C23.8337 7.83142 23.8337 5.78825 22.564 4.51967C21.2954 3.25 19.2522 3.25 15.167 3.25H10.8337C6.74841 3.25 4.70524 3.25 3.43666 4.51967C2.16699 5.78825 2.16699 7.83142 2.16699 11.9167C2.16699 16.0019 2.16699 18.0451 3.43666 19.3137C4.14408 20.0222 5.09199 20.3353 6.50033 20.4728" stroke="#8CCC00" stroke-width="2" stroke-linecap="round" stroke-linejoin="round"/>
<path d="M15.1667 20.5835C13.8277 20.5835 12.3522 21.1252 11.0056 21.8239C8.8411 22.9473 7.75885 23.5096 7.22585 23.151C6.69285 22.7935 6.7936 21.6831 6.99618 19.4633L7.04168 18.9585" stroke="#8CCC00" stroke-width="2" stroke-linecap="round"/>
</svg>
