<svg width="28" height="23" viewBox="0 0 28 23" fill="none" xmlns="http://www.w3.org/2000/svg">
<line x1="1" y1="4" x2="27" y2="4" stroke="#8CCC00" stroke-width="2" stroke-linecap="round"/>
<path d="M8.14029 22C7.87773 22 7.62593 21.8892 7.44028 21.6919C7.25462 21.4946 7.15032 21.227 7.15032 20.948L7.00183 5.52492C6.98991 5.21177 7.03636 4.89921 7.13852 4.60521C7.24067 4.31121 7.39652 4.04157 7.59708 3.8118C7.79765 3.58204 8.03898 3.39668 8.3072 3.26639C8.57541 3.13609 8.86522 3.06344 9.15996 3.0526L18.6537 3C18.9489 3.00548 19.2401 3.07269 19.5107 3.19779C19.7814 3.3229 20.0263 3.50344 20.2313 3.72912C20.4363 3.9548 20.5974 4.22119 20.7055 4.51307C20.8137 4.80495 20.8666 5.1166 20.8614 5.43023L21 20.8533C21.0017 21.0376 20.9577 21.2192 20.8726 21.3799C20.7875 21.5405 20.6641 21.6745 20.5149 21.7686C20.3644 21.8609 20.1937 21.9095 20.0199 21.9095C19.8461 21.9095 19.6754 21.8609 19.5249 21.7686L13.8821 18.4441L8.64517 21.8422C8.4901 21.9342 8.31757 21.9882 8.14029 22Z" fill="#8CCC00"/>
</svg>
