<svg width="26" height="26" viewBox="0 0 26 26" fill="none" xmlns="http://www.w3.org/2000/svg">
<path d="M16.25 11.9167H9.75" stroke="#8CCC00" stroke-width="2" stroke-linecap="round"/>
<path d="M15.1665 20.5833C19.2518 20.5833 21.2949 20.5833 22.5635 19.3137C23.8332 18.0451 23.8332 16.0019 23.8332 11.9167C23.8332 7.83142 23.8332 5.78825 22.5635 4.51967C21.2949 3.25 19.2518 3.25 15.1665 3.25H10.8332C6.74792 3.25 4.70475 3.25 3.43617 4.51967C2.1665 5.78825 2.1665 7.83142 2.1665 11.9167C2.1665 16.0019 2.1665 18.0451 3.43617 19.3137C4.14359 20.0222 5.0915 20.3353 6.49984 20.4728" stroke="#8CCC00" stroke-width="2" stroke-linecap="round" stroke-linejoin="round"/>
<path d="M15.1667 20.5833C13.8277 20.5833 12.3522 21.125 11.0056 21.8238C8.8411 22.9472 7.75885 23.5094 7.22585 23.1508C6.69285 22.7933 6.7936 21.6829 6.99618 19.4632L7.04168 18.9583" stroke="#8CCC00" stroke-width="2" stroke-linecap="round"/>
</svg>
