<svg width="25" height="21" viewBox="0 0 25 21" fill="none" xmlns="http://www.w3.org/2000/svg">
<path d="M1 14.014V6.9851C1 6.30346 1.5152 5.75008 2.15 5.75008H6.2739C6.42608 5.74952 6.57658 5.71714 6.71631 5.65489C6.85605 5.59264 6.98213 5.50182 7.08695 5.38789L10.5369 1.36458C11.2614 0.585572 12.5 1.13777 12.5 2.23859V18.7617C12.5 19.8708 11.2465 20.4183 10.5266 19.6238L7.0881 15.6231C6.98298 15.5059 6.85562 15.4123 6.71397 15.3482C6.57231 15.284 6.41938 15.2507 6.2647 15.2502H2.15C1.5152 15.2502 1 14.6968 1 14.014Z" stroke="#212148" stroke-width="2" stroke-linecap="round" stroke-linejoin="round"/>
<path d="M20.9439 10.7095L23.8105 7.75618C23.9361 7.62655 24.0066 7.45073 24.0066 7.2674C24.0066 7.08408 23.9361 6.90826 23.8105 6.77863C23.685 6.649 23.5147 6.57617 23.3372 6.57617C23.1597 6.57617 22.9894 6.649 22.8639 6.77863L20.0039 9.73882L17.1439 6.77863C17.0183 6.649 16.8481 6.57617 16.6705 6.57617C16.493 6.57617 16.3227 6.649 16.1972 6.77863C16.0717 6.90826 16.0011 7.08408 16.0011 7.2674C16.0011 7.45073 16.0717 7.62655 16.1972 7.75618L19.0639 10.7095L16.1972 13.6628C16.1347 13.7268 16.0851 13.8029 16.0513 13.8868C16.0174 13.9707 16 14.0607 16 14.1516C16 14.2424 16.0174 14.3324 16.0513 14.4163C16.0851 14.5002 16.1347 14.5763 16.1972 14.6403C16.2592 14.7049 16.3329 14.7561 16.4141 14.791C16.4954 14.826 16.5825 14.844 16.6705 14.844C16.7585 14.844 16.8457 14.826 16.9269 14.791C17.0082 14.7561 17.0819 14.7049 17.1439 14.6403L20.0039 11.6801L22.8639 14.6403C22.9258 14.7049 22.9996 14.7561 23.0808 14.791C23.1621 14.826 23.2492 14.844 23.3372 14.844C23.4252 14.844 23.5123 14.826 23.5936 14.791C23.6748 14.7561 23.7486 14.7049 23.8105 14.6403C23.873 14.5763 23.9226 14.5002 23.9565 14.4163C23.9903 14.3324 24.0077 14.2424 24.0077 14.1516C24.0077 14.0607 23.9903 13.9707 23.9565 13.8868C23.9226 13.8029 23.873 13.7268 23.8105 13.6628L20.9439 10.7095Z" fill="#212148"/>
</svg>
