<svg width="25" height="21" viewBox="0 0 25 21" fill="none" xmlns="http://www.w3.org/2000/svg">
<path d="M1 14.014V6.9851C1 6.30346 1.5152 5.75008 2.15 5.75008H6.2739C6.42608 5.74952 6.57658 5.71714 6.71631 5.65489C6.85605 5.59264 6.98213 5.50182 7.08695 5.38789L10.5369 1.36458C11.2614 0.585572 12.5 1.13777 12.5 2.23859V18.7617C12.5 19.8708 11.2465 20.4183 10.5266 19.6238L7.0881 15.6231C6.98298 15.5059 6.85562 15.4123 6.71397 15.3482C6.57231 15.284 6.41938 15.2507 6.2647 15.2502H2.15C1.5152 15.2502 1 14.6968 1 14.014Z" stroke="#8CCC00" stroke-width="2" stroke-linecap="round" stroke-linejoin="round"/>
<path d="M17 7.5C18.333 9.278 18.333 12.722 17 14.5" stroke="#8CCC00" stroke-width="2" stroke-linecap="round" stroke-linejoin="round"/>
<path d="M20 4C23.988 7.808 24.012 14.217 20 18" stroke="#8CCC00" stroke-width="2" stroke-linecap="round" stroke-linejoin="round"/>
</svg>
