<svg width="67" height="61" viewBox="0 0 67 61" fill="none" xmlns="http://www.w3.org/2000/svg">
<rect width="67" height="53" rx="14" fill="#EB6223"/>
<rect x="17" y="56" width="9" height="5" rx="2" fill="#EB6223"/>
<rect opacity="0.2" x="29" y="56" width="10" height="5" rx="2" fill="#EB6223"/>
<rect opacity="0.2" x="42" y="56" width="9" height="5" rx="2" fill="#EB6223"/>
<path opacity="0.8" d="M12.47 35.848C17.6889 39.1098 24.3111 39.1098 29.53 35.848L28.47 34.152C23.8996 37.0085 18.1004 37.0085 13.53 34.152L12.47 35.848Z" fill="white"/>
<path opacity="0.5" d="M36.47 35.848C41.6889 39.1098 48.3111 39.1098 53.53 35.848L52.47 34.152C47.8996 37.0085 42.1004 37.0085 37.53 34.152L36.47 35.848Z" fill="white"/>
<path d="M22.45 21.53V32H20.35V25.19L17.545 32H15.955L13.135 25.19V32H11.035V21.53H13.42L16.75 29.315L20.08 21.53H22.45ZM28.2162 32.135C27.4162 32.135 26.6962 31.96 26.0562 31.61C25.4162 31.25 24.9112 30.745 24.5412 30.095C24.1812 29.445 24.0012 28.695 24.0012 27.845C24.0012 26.995 24.1862 26.245 24.5562 25.595C24.9362 24.945 25.4512 24.445 26.1012 24.095C26.7512 23.735 27.4762 23.555 28.2762 23.555C29.0762 23.555 29.8012 23.735 30.4512 24.095C31.1012 24.445 31.6112 24.945 31.9812 25.595C32.3612 26.245 32.5512 26.995 32.5512 27.845C32.5512 28.695 32.3562 29.445 31.9662 30.095C31.5862 30.745 31.0662 31.25 30.4062 31.61C29.7562 31.96 29.0262 32.135 28.2162 32.135ZM28.2162 30.305C28.5962 30.305 28.9512 30.215 29.2812 30.035C29.6212 29.845 29.8912 29.565 30.0912 29.195C30.2912 28.825 30.3912 28.375 30.3912 27.845C30.3912 27.055 30.1812 26.45 29.7612 26.03C29.3512 25.6 28.8462 25.385 28.2462 25.385C27.6462 25.385 27.1412 25.6 26.7312 26.03C26.3312 26.45 26.1312 27.055 26.1312 27.845C26.1312 28.635 26.3262 29.245 26.7162 29.675C27.1162 30.095 27.6162 30.305 28.2162 30.305Z" fill="white"/>
<path d="M36.5366 25.415V29.435C36.5366 29.715 36.6016 29.92 36.7316 30.05C36.8716 30.17 37.1016 30.23 37.4216 30.23H38.3966V32H37.0766C35.3066 32 34.4216 31.14 34.4216 29.42V25.415H33.4316V23.69H34.4216V21.635H36.5366V23.69H38.3966V25.415H36.5366ZM47.7521 23.69V32H45.6371V30.95C45.3671 31.31 45.0121 31.595 44.5721 31.805C44.1421 32.005 43.6721 32.105 43.1621 32.105C42.5121 32.105 41.9371 31.97 41.4371 31.7C40.9371 31.42 40.5421 31.015 40.2521 30.485C39.9721 29.945 39.8321 29.305 39.8321 28.565V23.69H41.9321V28.265C41.9321 28.925 42.0971 29.435 42.4271 29.795C42.7571 30.145 43.2071 30.32 43.7771 30.32C44.3571 30.32 44.8121 30.145 45.1421 29.795C45.4721 29.435 45.6371 28.925 45.6371 28.265V23.69H47.7521ZM53.0041 32.135C52.3241 32.135 51.7141 32.015 51.1741 31.775C50.6341 31.525 50.2041 31.19 49.8841 30.77C49.5741 30.35 49.4041 29.885 49.3741 29.375H51.4891C51.5291 29.695 51.6841 29.96 51.9541 30.17C52.2341 30.38 52.5791 30.485 52.9891 30.485C53.3891 30.485 53.6991 30.405 53.9191 30.245C54.1491 30.085 54.2641 29.88 54.2641 29.63C54.2641 29.36 54.1241 29.16 53.8441 29.03C53.5741 28.89 53.1391 28.74 52.5391 28.58C51.9191 28.43 51.4091 28.275 51.0091 28.115C50.6191 27.955 50.2791 27.71 49.9891 27.38C49.7091 27.05 49.5691 26.605 49.5691 26.045C49.5691 25.585 49.6991 25.165 49.9591 24.785C50.2291 24.405 50.6091 24.105 51.0991 23.885C51.5991 23.665 52.1841 23.555 52.8541 23.555C53.8441 23.555 54.6341 23.805 55.2241 24.305C55.8141 24.795 56.1391 25.46 56.1991 26.3H54.1891C54.1591 25.97 54.0191 25.71 53.7691 25.52C53.5291 25.32 53.2041 25.22 52.7941 25.22C52.4141 25.22 52.1191 25.29 51.9091 25.43C51.7091 25.57 51.6091 25.765 51.6091 26.015C51.6091 26.295 51.7491 26.51 52.0291 26.66C52.3091 26.8 52.7441 26.945 53.3341 27.095C53.9341 27.245 54.4291 27.4 54.8191 27.56C55.2091 27.72 55.5441 27.97 55.8241 28.31C56.1141 28.64 56.2641 29.08 56.2741 29.63C56.2741 30.11 56.1391 30.54 55.8691 30.92C55.6091 31.3 55.2291 31.6 54.7291 31.82C54.2391 32.03 53.6641 32.135 53.0041 32.135Z" fill="#F9C1A8"/>
</svg>
