<svg width="67" height="61" viewBox="0 0 67 61" fill="none" xmlns="http://www.w3.org/2000/svg">
<rect width="67" height="53" rx="14" fill="#EB6223"/>
<rect opacity="0.2" x="17" y="56" width="9" height="5" rx="2" fill="#EB6223"/>
<rect x="29" y="56" width="10" height="5" rx="2" fill="#EB6223"/>
<rect opacity="0.2" x="42" y="56" width="9" height="5" rx="2" fill="#EB6223"/>
<path d="M13.8324 17.795V19.505H11.8224V33.005H13.8324V34.715H9.8274V17.795H13.8324ZM18.3958 23.585C19.4058 23.585 20.2158 23.84 20.8258 24.35C21.4358 24.86 21.8158 25.54 21.9658 26.39H19.9858C19.9058 25.99 19.7258 25.67 19.4458 25.43C19.1658 25.19 18.8008 25.07 18.3508 25.07C17.9908 25.07 17.7108 25.155 17.5108 25.325C17.3108 25.495 17.2108 25.725 17.2108 26.015C17.2108 26.245 17.2908 26.43 17.4508 26.57C17.6108 26.71 17.8108 26.82 18.0508 26.9C18.2908 26.98 18.6358 27.075 19.0858 27.185C19.7158 27.325 20.2258 27.475 20.6158 27.635C21.0158 27.785 21.3558 28.03 21.6358 28.37C21.9258 28.7 22.0708 29.15 22.0708 29.72C22.0708 30.43 21.7908 31.005 21.2308 31.445C20.6808 31.885 19.9358 32.105 18.9958 32.105C17.9158 32.105 17.0508 31.865 16.4008 31.385C15.7508 30.895 15.3558 30.2 15.2158 29.3H17.2408C17.2908 29.71 17.4708 30.035 17.7808 30.275C18.0908 30.505 18.4958 30.62 18.9958 30.62C19.3558 30.62 19.6308 30.535 19.8208 30.365C20.0108 30.185 20.1058 29.955 20.1058 29.675C20.1058 29.435 20.0208 29.24 19.8508 29.09C19.6908 28.94 19.4858 28.825 19.2358 28.745C18.9958 28.665 18.6508 28.57 18.2008 28.46C17.5808 28.32 17.0758 28.18 16.6858 28.04C16.3058 27.89 15.9758 27.655 15.6958 27.335C15.4258 27.015 15.2908 26.575 15.2908 26.015C15.2908 25.295 15.5658 24.71 16.1158 24.26C16.6658 23.81 17.4258 23.585 18.3958 23.585ZM23.406 34.715V33.005H25.431V19.505H23.406V17.795H27.411V34.715H23.406Z" fill="white"/>
<path d="M34.1498 17.795V19.505H32.1398V33.005H34.1498V34.715H30.1448V17.795H34.1498ZM39.6882 23.585C40.4982 23.585 41.2232 23.755 41.8632 24.095C42.5132 24.435 43.0232 24.93 43.3932 25.58C43.7632 26.22 43.9482 26.975 43.9482 27.845C43.9482 28.715 43.7632 29.47 43.3932 30.11C43.0232 30.75 42.5132 31.245 41.8632 31.595C41.2232 31.935 40.4982 32.105 39.6882 32.105C38.8782 32.105 38.1482 31.935 37.4982 31.595C36.8582 31.245 36.3532 30.75 35.9832 30.11C35.6132 29.47 35.4282 28.715 35.4282 27.845C35.4282 26.975 35.6132 26.22 35.9832 25.58C36.3532 24.93 36.8582 24.435 37.4982 24.095C38.1482 23.755 38.8782 23.585 39.6882 23.585ZM39.6882 25.415C39.0982 25.415 38.5982 25.625 38.1882 26.045C37.7782 26.455 37.5732 27.055 37.5732 27.845C37.5732 28.635 37.7782 29.24 38.1882 29.66C38.5982 30.07 39.0982 30.275 39.6882 30.275C40.2782 30.275 40.7782 30.07 41.1882 29.66C41.5982 29.24 41.8032 28.635 41.8032 27.845C41.8032 27.055 41.5982 26.455 41.1882 26.045C40.7782 25.625 40.2782 25.415 39.6882 25.415ZM50.3929 23.57C51.3529 23.57 52.1179 23.885 52.6879 24.515C53.2579 25.145 53.5429 26.03 53.5429 27.17V32H51.4429V27.41C51.4429 26.75 51.2729 26.24 50.9329 25.88C50.5929 25.51 50.1279 25.325 49.5379 25.325C48.9379 25.325 48.4579 25.52 48.0979 25.91C47.7379 26.3 47.5579 26.86 47.5579 27.59V32H45.4429V23.69H47.5579V25.355C47.7779 24.795 48.1379 24.36 48.6379 24.05C49.1479 23.73 49.7329 23.57 50.3929 23.57ZM55.1638 34.715V33.005H57.1888V19.505H55.1638V17.795H59.1688V34.715H55.1638Z" fill="#F5B091"/>
</svg>
