<svg width="67" height="61" viewBox="0 0 67 61" fill="none" xmlns="http://www.w3.org/2000/svg">
<rect width="67" height="53" rx="14" fill="#EB6223"/>
<rect opacity="0.2" x="17" y="56" width="9" height="5" rx="2" fill="#EB6223"/>
<rect opacity="0.2" x="29" y="56" width="10" height="5" rx="2" fill="#EB6223"/>
<rect x="42" y="56" width="9" height="5" rx="2" fill="#EB6223"/>
<path d="M24.44 21.53L20.6 32H18.05L14.21 21.53H16.46L19.34 29.855L22.205 21.53H24.44ZM33.4241 27.665C33.4241 27.965 33.4041 28.235 33.3641 28.475H27.2891C27.3391 29.075 27.5491 29.545 27.9191 29.885C28.2891 30.225 28.7441 30.395 29.2841 30.395C30.0641 30.395 30.6191 30.06 30.9491 29.39H33.2141C32.9741 30.19 32.5141 30.85 31.8341 31.37C31.1541 31.88 30.3191 32.135 29.3291 32.135C28.5291 32.135 27.8091 31.96 27.1691 31.61C26.5391 31.25 26.0441 30.745 25.6841 30.095C25.3341 29.445 25.1591 28.695 25.1591 27.845C25.1591 26.985 25.3341 26.23 25.6841 25.58C26.0341 24.93 26.5241 24.43 27.1541 24.08C27.7841 23.73 28.5091 23.555 29.3291 23.555C30.1191 23.555 30.8241 23.725 31.4441 24.065C32.0741 24.405 32.5591 24.89 32.8991 25.52C33.2491 26.14 33.4241 26.855 33.4241 27.665ZM31.2491 27.065C31.2391 26.525 31.0441 26.095 30.6641 25.775C30.2841 25.445 29.8191 25.28 29.2691 25.28C28.7491 25.28 28.3091 25.44 27.9491 25.76C27.5991 26.07 27.3841 26.505 27.3041 27.065H31.2491ZM37.0569 24.98C37.3269 24.54 37.6769 24.195 38.1069 23.945C38.5469 23.695 39.0469 23.57 39.6069 23.57V25.775H39.0519C38.3919 25.775 37.8919 25.93 37.5519 26.24C37.2219 26.55 37.0569 27.09 37.0569 27.86V32H34.9569V23.69H37.0569V24.98ZM43.1213 24.905C43.3913 24.505 43.7613 24.18 44.2313 23.93C44.7113 23.68 45.2563 23.555 45.8663 23.555C46.5763 23.555 47.2163 23.73 47.7863 24.08C48.3663 24.43 48.8213 24.93 49.1513 25.58C49.4913 26.22 49.6613 26.965 49.6613 27.815C49.6613 28.665 49.4913 29.42 49.1513 30.08C48.8213 30.73 48.3663 31.235 47.7863 31.595C47.2163 31.955 46.5763 32.135 45.8663 32.135C45.2463 32.135 44.7013 32.015 44.2313 31.775C43.7713 31.525 43.4013 31.205 43.1213 30.815V32H41.0213V20.9H43.1213V24.905ZM47.5163 27.815C47.5163 27.315 47.4113 26.885 47.2013 26.525C47.0013 26.155 46.7313 25.875 46.3913 25.685C46.0613 25.495 45.7013 25.4 45.3113 25.4C44.9313 25.4 44.5713 25.5 44.2313 25.7C43.9013 25.89 43.6313 26.17 43.4213 26.54C43.2213 26.91 43.1213 27.345 43.1213 27.845C43.1213 28.345 43.2213 28.78 43.4213 29.15C43.6313 29.52 43.9013 29.805 44.2313 30.005C44.5713 30.195 44.9313 30.29 45.3113 30.29C45.7013 30.29 46.0613 30.19 46.3913 29.99C46.7313 29.79 47.0013 29.505 47.2013 29.135C47.4113 28.765 47.5163 28.325 47.5163 27.815Z" fill="white"/>
</svg>
