<svg width="67" height="61" viewBox="0 0 67 61" fill="none" xmlns="http://www.w3.org/2000/svg">
<g opacity="0.2">
<rect width="67" height="53" rx="14" fill="#0C0C28"/>
</g>
<rect x="17" y="56" width="9" height="5" rx="2" fill="#62628A"/>
<rect x="29" y="56" width="10" height="5" rx="2" fill="#62628A"/>
<rect x="42" y="56" width="9" height="5" rx="2" fill="#62628A"/>
<path d="M44.3333 13C45.125 13 45.9167 13.2917 46.5342 13.8896C47.1833 14.4583 47.5 15.1875 47.5 15.9167V36.3333C47.5 37.0625 47.1833 37.7917 46.5342 38.3604C45.9167 38.9583 45.125 39.25 44.3333 39.25H22.1667C21.375 39.25 20.5833 38.9583 19.9658 38.3604C19.3167 37.7917 19 37.0625 19 36.3333V15.9167C19 15.1875 19.3167 14.4583 19.9658 13.8896C20.5833 13.2917 21.375 13 22.1667 13H44.3333Z" fill="#62628A"/>
</svg>
