<svg width="67" height="61" viewBox="0 0 67 61" fill="none" xmlns="http://www.w3.org/2000/svg">
<rect width="67" height="53" rx="14" fill="#EB6223"/>
<path d="M45.0833 31.0417V22.125H32.4167H29.25H22.9167V31.0417H29.25H32.4167H45.0833ZM45.0833 13.375C45.875 13.375 46.6667 13.6667 47.2842 14.2646C47.9333 14.8333 48.25 15.5625 48.25 16.2917V36.7083C48.25 37.4375 47.9333 38.1667 47.2842 38.7354C46.6667 39.3333 45.875 39.625 45.0833 39.625H22.9167C22.125 39.625 21.3333 39.3333 20.7158 38.7354C20.0667 38.1667 19.75 37.4375 19.75 36.7083V16.2917C19.75 15.5625 20.0667 14.8333 20.7158 14.2646C21.3333 13.6667 22.125 13.375 22.9167 13.375H45.0833Z" fill="white"/>
<rect opacity="0.2" x="17" y="56" width="9" height="5" rx="2" fill="#EB6223"/>
<rect opacity="0.2" x="29" y="56" width="10" height="5" rx="2" fill="#EB6223"/>
<rect x="42" y="56" width="9" height="5" rx="2" fill="#EB6223"/>
</svg>
