<svg width="79" height="60" viewBox="0 0 79 60" fill="none" xmlns="http://www.w3.org/2000/svg">
<rect opacity="0.2" width="79" height="60" rx="14" fill="#C9C9CF"/>
<path d="M47 37.5525C47.0001 37.8274 46.9246 38.0972 46.7817 38.3321C46.6389 38.5671 46.4342 38.7582 46.19 38.8847C45.9459 39.0112 45.6716 39.0682 45.3973 39.0493C45.123 39.0305 44.8591 38.9366 44.6345 38.778L33.935 31.2255C33.7388 31.087 33.5787 30.9034 33.4681 30.6901C33.3576 30.4768 33.3 30.2402 33.3 30C33.3 29.7598 33.3576 29.5231 33.4681 29.3098C33.5787 29.0966 33.7388 28.913 33.935 28.7745L44.6345 21.222C44.8591 21.0633 45.123 20.9694 45.3973 20.9506C45.6716 20.9318 45.9459 20.9887 46.19 21.1152C46.4342 21.2417 46.6389 21.4329 46.7817 21.6678C46.9246 21.9028 47.0001 22.1725 47 22.4475L47 37.5525Z" fill="#EB6223"/>
<path d="M29 37.875C29 38.1734 29.1185 38.4595 29.3295 38.6705C29.5405 38.8815 29.8266 39 30.125 39C30.4234 39 30.7095 38.8815 30.9205 38.6705C31.1315 38.4595 31.25 38.1734 31.25 37.875L31.25 22.125C31.25 21.8266 31.1315 21.5405 30.9205 21.3295C30.7095 21.1185 30.4234 21 30.125 21C29.8266 21 29.5405 21.1185 29.3295 21.3295C29.1185 21.5405 29 21.8266 29 22.125L29 37.875Z" fill="#EB6223"/>
</svg>
