<svg width="79" height="60" viewBox="0 0 79 60" fill="none" xmlns="http://www.w3.org/2000/svg">
<rect opacity="0.2" width="79" height="60" rx="14" fill="#C9C9CF"/>
<path d="M31 22.4475C30.9999 22.1726 31.0754 21.9028 31.2183 21.6679C31.3611 21.4329 31.5658 21.2418 31.81 21.1153C32.0541 20.9888 32.3284 20.9318 32.6027 20.9507C32.877 20.9695 33.1409 21.0634 33.3655 21.222L44.065 28.7745C44.2612 28.913 44.4213 29.0966 44.5319 29.3099C44.6424 29.5232 44.7 29.7598 44.7 30C44.7 30.2402 44.6424 30.4769 44.5319 30.6902C44.4213 30.9034 44.2612 31.087 44.065 31.2255L33.3655 38.778C33.1409 38.9367 32.877 39.0306 32.6027 39.0494C32.3284 39.0682 32.0541 39.0113 31.81 38.8848C31.5658 38.7583 31.3611 38.5671 31.2183 38.3322C31.0754 38.0972 30.9999 37.8275 31 37.5525V22.4475Z" fill="#EB6223"/>
<path d="M49 22.125C49 21.8266 48.8815 21.5405 48.6705 21.3295C48.4595 21.1185 48.1734 21 47.875 21C47.5766 21 47.2905 21.1185 47.0795 21.3295C46.8685 21.5405 46.75 21.8266 46.75 22.125V37.875C46.75 38.1734 46.8685 38.4595 47.0795 38.6705C47.2905 38.8815 47.5766 39 47.875 39C48.1734 39 48.4595 38.8815 48.6705 38.6705C48.8815 38.4595 49 38.1734 49 37.875V22.125Z" fill="#EB6223"/>
</svg>
