<svg width="289" height="45" viewBox="0 0 289 45" fill="none" xmlns="http://www.w3.org/2000/svg">
<path d="M267.42 17.166H262.73V19.952C262.926 19.6907 263.215 19.4713 263.598 19.294C263.99 19.1167 264.405 19.028 264.844 19.028C265.628 19.028 266.263 19.196 266.748 19.532C267.243 19.868 267.593 20.2927 267.798 20.806C268.013 21.3193 268.12 21.8607 268.12 22.43C268.12 23.1207 267.985 23.7367 267.714 24.278C267.453 24.81 267.056 25.23 266.524 25.538C266.001 25.846 265.357 26 264.592 26C263.575 26 262.758 25.748 262.142 25.244C261.526 24.74 261.157 24.0727 261.036 23.242H262.59C262.693 23.6807 262.921 24.0307 263.276 24.292C263.631 24.544 264.074 24.67 264.606 24.67C265.269 24.67 265.763 24.4693 266.09 24.068C266.426 23.6667 266.594 23.1347 266.594 22.472C266.594 21.8 266.426 21.2867 266.09 20.932C265.754 20.568 265.259 20.386 264.606 20.386C264.149 20.386 263.761 20.5027 263.444 20.736C263.136 20.96 262.912 21.268 262.772 21.66H261.26V15.766H267.42V17.166ZM269.781 20.764C269.781 19.1493 270.052 17.8893 270.593 16.984C271.144 16.0693 272.087 15.612 273.421 15.612C274.756 15.612 275.694 16.0693 276.235 16.984C276.786 17.8893 277.061 19.1493 277.061 20.764C277.061 22.3973 276.786 23.676 276.235 24.6C275.694 25.5147 274.756 25.972 273.421 25.972C272.087 25.972 271.144 25.5147 270.593 24.6C270.052 23.676 269.781 22.3973 269.781 20.764ZM275.493 20.764C275.493 20.008 275.442 19.3687 275.339 18.846C275.246 18.3233 275.05 17.8987 274.751 17.572C274.453 17.236 274.009 17.068 273.421 17.068C272.833 17.068 272.39 17.236 272.091 17.572C271.793 17.8987 271.592 18.3233 271.489 18.846C271.396 19.3687 271.349 20.008 271.349 20.764C271.349 21.548 271.396 22.206 271.489 22.738C271.583 23.27 271.779 23.6993 272.077 24.026C272.385 24.3527 272.833 24.516 273.421 24.516C274.009 24.516 274.453 24.3527 274.751 24.026C275.059 23.6993 275.26 23.27 275.353 22.738C275.447 22.206 275.493 21.548 275.493 20.764ZM278.498 18.258C278.498 17.5767 278.694 17.0447 279.086 16.662C279.487 16.27 280.001 16.074 280.626 16.074C281.251 16.074 281.76 16.27 282.152 16.662C282.553 17.0447 282.754 17.5767 282.754 18.258C282.754 18.9393 282.553 19.476 282.152 19.868C281.76 20.26 281.251 20.456 280.626 20.456C280.001 20.456 279.487 20.26 279.086 19.868C278.694 19.476 278.498 18.9393 278.498 18.258ZM287.038 16.256L281.452 26H279.884L285.47 16.256H287.038ZM280.626 17.04C280.038 17.04 279.744 17.446 279.744 18.258C279.744 19.0793 280.038 19.49 280.626 19.49C280.906 19.49 281.121 19.392 281.27 19.196C281.429 18.9907 281.508 18.678 281.508 18.258C281.508 17.446 281.214 17.04 280.626 17.04ZM284.196 23.984C284.196 23.3027 284.392 22.7707 284.784 22.388C285.185 21.996 285.699 21.8 286.324 21.8C286.94 21.8 287.444 21.996 287.836 22.388C288.237 22.7707 288.438 23.3027 288.438 23.984C288.438 24.6653 288.237 25.202 287.836 25.594C287.444 25.986 286.94 26.182 286.324 26.182C285.699 26.182 285.185 25.986 284.784 25.594C284.392 25.202 284.196 24.6653 284.196 23.984ZM286.31 22.766C285.722 22.766 285.428 23.172 285.428 23.984C285.428 24.796 285.722 25.202 286.31 25.202C286.898 25.202 287.192 24.796 287.192 23.984C287.192 23.172 286.898 22.766 286.31 22.766Z" fill="#212148"/>
<rect x="132" y="10" width="2" height="22" rx="1" fill="#EB6223"/>
<rect opacity="0.3" y="19" width="250" height="5" rx="2.5" fill="#EB6223"/>
<path d="M0 21.5C0 20.1193 1.11929 19 2.5 19H74.5C75.8807 19 77 20.1193 77 21.5C77 22.8807 75.8807 24 74.5 24H2.5C1.11929 24 0 22.8807 0 21.5Z" fill="#EB6223"/>
<g filter="url(#filter0_d)">
<circle cx="73.5" cy="22.5" r="12.5" fill="white"/>
</g>
<defs>
<filter id="filter0_d" x="51" y="0" width="45" height="45" filterUnits="userSpaceOnUse" color-interpolation-filters="sRGB">
<feFlood flood-opacity="0" result="BackgroundImageFix"/>
<feColorMatrix in="SourceAlpha" type="matrix" values="0 0 0 0 0 0 0 0 0 0 0 0 0 0 0 0 0 0 127 0" result="hardAlpha"/>
<feOffset/>
<feGaussianBlur stdDeviation="5"/>
<feColorMatrix type="matrix" values="0 0 0 0 0 0 0 0 0 0 0 0 0 0 0 0 0 0 0.15 0"/>
<feBlend mode="normal" in2="BackgroundImageFix" result="effect1_dropShadow"/>
<feBlend mode="normal" in="SourceGraphic" in2="effect1_dropShadow" result="shape"/>
</filter>
</defs>
</svg>
 